<?xml version="1.0" encoding="UTF-8"?>
<svg width="752pt" height="752pt" version="1.1" viewBox="0 0 752 752" xmlns="http://www.w3.org/2000/svg">
 <path d="m524.57 367.35c-29.828-48.207-86.758-78.152-148.57-78.152-61.805 0-118.73 29.945-148.57 78.152-3.2812 5.3008-3.2812 12.004 0 17.305 29.832 48.207 86.762 78.152 148.57 78.152s118.73-29.945 148.57-78.152c3.2812-5.2969 3.2812-12.004 0-17.305zm-105.05 8.6523c0 29.727-19.52 53.918-43.52 53.918-23.996 0-43.516-24.188-43.516-53.918 0-29.727 19.52-53.918 43.516-53.918 24 0 43.52 24.191 43.52 53.918zm-158.21 0c11.859-15.812 27.727-28.664 46.047-37.879-4.9219 11.469-7.7656 24.289-7.7656 37.879 0 13.594 2.8398 26.414 7.7656 37.879-18.32-9.2109-34.188-22.062-46.047-37.879zm183.33 37.879c4.9219-11.465 7.7617-24.285 7.7617-37.879s-2.8398-26.414-7.7656-37.879c18.324 9.2148 34.191 22.066 46.051 37.879-11.859 15.816-27.727 28.668-46.047 37.879z"/>
</svg>
